<!-- Generated by IcoMoon.io -->
<svg version="1.1" xmlns="http://www.w3.org/2000/svg" width="768" height="768" viewBox="0 0 768 768">
<title></title>
<g id="icomoon-ignore">
</g>
<path d="M96 64c-17.664 0-32 14.336-32 32v224c0 17.664 14.336 32 32 32h224c17.664 0 32-14.336 32-32v-224c0-17.664-14.336-32-32-32zM128 128h160v160h-160zM448 64c-17.664 0-32 14.336-32 32v224c0 17.664 14.336 32 32 32h224c17.664 0 32-14.336 32-32v-224c0-17.664-14.336-32-32-32zM480 128h160v160h-160zM448 416c-17.664 0-32 14.336-32 32v224c0 17.664 14.336 32 32 32h224c17.664 0 32-14.336 32-32v-224c0-17.664-14.336-32-32-32zM480 480h160v160h-160zM96 416c-17.664 0-32 14.336-32 32v224c0 17.664 14.336 32 32 32h224c17.664 0 32-14.336 32-32v-224c0-17.664-14.336-32-32-32zM128 480h160v160h-160z"></path>
</svg>
